<svg width="52" height="52" viewBox="0 0 52 52" fill="none" xmlns="http://www.w3.org/2000/svg">
<path d="M11.8717 33.175C15.7048 37.4679 23.0264 43.3021 26.3716 45.8939C29.6294 43.3021 36.7721 37.4679 40.6052 33.175C44.1288 29.2288 46.6861 26.1573 46.2204 20.8007C45.829 16.2979 44.209 13.0456 40.6052 11.0115C37.7616 9.40644 35.0753 9.08087 32.0148 10.2063C30.2708 10.8477 27.9327 12.8988 26.399 14.3742C24.7261 12.8988 22.2062 10.8477 20.4621 10.2063C17.4016 9.08087 14.7154 9.40644 11.8717 11.0115C8.26796 13.0456 6.648 16.2979 6.25656 20.8007C5.7909 26.1573 8.34815 29.2288 11.8717 33.175Z" fill="#FB7171"/>
<path d="M28.1169 47.2293C28.1169 47.2293 16.9422 38.8536 11.8717 33.175C8.34815 29.2288 5.7909 26.1573 6.25656 20.8007C6.648 16.2979 8.26796 13.0456 11.8717 11.0115C14.7154 9.40644 17.4016 9.08087 20.4621 10.2063C23.2868 11.245 28.1467 15.9816 28.1467 15.9816M24.6731 47.2293C24.6731 47.2293 35.5348 38.8536 40.6052 33.175C44.1288 29.2288 46.6861 26.1573 46.2204 20.8007C45.829 16.2979 44.209 13.0456 40.6052 11.0115C37.7616 9.40644 35.0753 9.08087 32.0148 10.2063C29.1902 11.245 24.8073 15.9816 24.8073 15.9816" stroke="white" stroke-width="5"/>
<circle cx="26" cy="26" r="23.5" stroke="white" stroke-width="5"/>
</svg>
