<svg width="350" height="194" viewBox="0 0 350 194" fill="none" xmlns="http://www.w3.org/2000/svg">
<path d="M51.0998 149.8V193H44.9198V163.39C44.9198 162.91 44.9298 162.39 44.9498 161.83C44.9898 161.25 45.0398 160.67 45.0998 160.09L31.2098 185.74C30.6698 186.8 29.8398 187.33 28.7198 187.33H27.7298C26.5898 187.33 25.7598 186.8 25.2398 185.74L11.1398 160.03C11.1998 160.61 11.2398 161.19 11.2598 161.77C11.2998 162.35 11.3198 162.89 11.3198 163.39V193H5.13977V149.8H10.3898C11.0098 149.8 11.4898 149.86 11.8298 149.98C12.1698 150.08 12.4798 150.41 12.7598 150.97L26.6198 176.08C26.9198 176.66 27.1998 177.26 27.4598 177.88C27.7398 178.48 27.9898 179.1 28.2098 179.74C28.4498 179.1 28.6998 178.47 28.9598 177.85C29.2398 177.21 29.5298 176.6 29.8298 176.02L43.4798 150.97C43.7598 150.41 44.0698 150.08 44.4098 149.98C44.7498 149.86 45.2298 149.8 45.8498 149.8H51.0998ZM94.2637 174.25C94.2637 173.17 94.1037 172.17 93.7837 171.25C93.4837 170.31 93.0337 169.5 92.4337 168.82C91.8337 168.12 91.0837 167.58 90.1837 167.2C89.3037 166.8 88.2837 166.6 87.1237 166.6C84.7837 166.6 82.9437 167.27 81.6037 168.61C80.2637 169.95 79.4137 171.83 79.0537 174.25H94.2637ZM78.8737 178.21C78.9537 179.95 79.2237 181.46 79.6837 182.74C80.1437 184 80.7537 185.05 81.5137 185.89C82.2937 186.73 83.2137 187.36 84.2737 187.78C85.3537 188.18 86.5537 188.38 87.8737 188.38C89.1337 188.38 90.2237 188.24 91.1437 187.96C92.0637 187.66 92.8637 187.34 93.5437 187C94.2237 186.64 94.8037 186.32 95.2837 186.04C95.7637 185.74 96.2037 185.59 96.6037 185.59C97.1237 185.59 97.5237 185.79 97.8037 186.19L99.6337 188.56C98.8737 189.46 98.0137 190.22 97.0537 190.84C96.0937 191.46 95.0737 191.97 93.9937 192.37C92.9137 192.75 91.8037 193.02 90.6637 193.18C89.5237 193.36 88.4137 193.45 87.3337 193.45C85.2137 193.45 83.2437 193.1 81.4237 192.4C79.6237 191.68 78.0537 190.63 76.7137 189.25C75.3937 187.87 74.3537 186.16 73.5937 184.12C72.8537 182.08 72.4837 179.73 72.4837 177.07C72.4837 174.95 72.8137 172.97 73.4737 171.13C74.1537 169.29 75.1137 167.69 76.3537 166.33C77.6137 164.97 79.1337 163.9 80.9137 163.12C82.7137 162.32 84.7437 161.92 87.0037 161.92C88.8837 161.92 90.6237 162.23 92.2237 162.85C93.8237 163.45 95.2037 164.34 96.3637 165.52C97.5237 166.7 98.4237 168.15 99.0637 169.87C99.7237 171.57 100.054 173.51 100.054 175.69C100.054 176.69 99.9437 177.36 99.7237 177.7C99.5037 178.04 99.1037 178.21 98.5237 178.21H78.8737ZM140.599 169.93C139.699 168.77 138.709 167.96 137.629 167.5C136.549 167.04 135.379 166.81 134.119 166.81C131.599 166.81 129.629 167.74 128.209 169.6C126.789 171.44 126.079 174.17 126.079 177.79C126.079 179.67 126.239 181.28 126.559 182.62C126.879 183.94 127.339 185.02 127.939 185.86C128.539 186.7 129.269 187.31 130.129 187.69C130.989 188.07 131.959 188.26 133.039 188.26C134.679 188.26 136.089 187.91 137.269 187.21C138.469 186.49 139.579 185.48 140.599 184.18V169.93ZM147.049 148.6V193H143.149C142.289 193 141.739 192.59 141.499 191.77L140.929 188.44C139.649 189.94 138.189 191.15 136.549 192.07C134.929 192.99 133.039 193.45 130.879 193.45C129.159 193.45 127.599 193.11 126.199 192.43C124.799 191.73 123.599 190.72 122.599 189.4C121.599 188.08 120.819 186.45 120.259 184.51C119.719 182.55 119.449 180.31 119.449 177.79C119.449 175.51 119.749 173.4 120.349 171.46C120.969 169.52 121.849 167.84 122.989 166.42C124.129 164.98 125.509 163.86 127.129 163.06C128.769 162.24 130.599 161.83 132.619 161.83C134.419 161.83 135.949 162.12 137.209 162.7C138.469 163.26 139.599 164.05 140.599 165.07V148.6H147.049ZM176.656 162.4V193H170.206V162.4H176.656ZM177.736 153.16C177.736 153.74 177.616 154.29 177.376 154.81C177.156 155.33 176.846 155.79 176.446 156.19C176.046 156.57 175.576 156.88 175.036 157.12C174.516 157.34 173.956 157.45 173.356 157.45C172.776 157.45 172.226 157.34 171.706 157.12C171.206 156.88 170.766 156.57 170.386 156.19C170.006 155.79 169.696 155.33 169.456 154.81C169.236 154.29 169.126 153.74 169.126 153.16C169.126 152.56 169.236 152 169.456 151.48C169.696 150.96 170.006 150.51 170.386 150.13C170.766 149.73 171.206 149.42 171.706 149.2C172.226 148.96 172.776 148.84 173.356 148.84C173.956 148.84 174.516 148.96 175.036 149.2C175.576 149.42 176.046 149.73 176.446 150.13C176.846 150.51 177.156 150.96 177.376 151.48C177.616 152 177.736 152.56 177.736 153.16ZM221.39 168.4C221.19 168.66 221 168.86 220.82 169C220.64 169.14 220.38 169.21 220.04 169.21C219.7 169.21 219.34 169.09 218.96 168.85C218.6 168.61 218.16 168.35 217.64 168.07C217.14 167.77 216.53 167.5 215.81 167.26C215.09 167.02 214.19 166.9 213.11 166.9C211.71 166.9 210.48 167.15 209.42 167.65C208.38 168.15 207.5 168.87 206.78 169.81C206.08 170.73 205.55 171.86 205.19 173.2C204.85 174.52 204.68 176.01 204.68 177.67C204.68 179.39 204.87 180.92 205.25 182.26C205.63 183.6 206.17 184.73 206.87 185.65C207.59 186.57 208.45 187.27 209.45 187.75C210.47 188.23 211.61 188.47 212.87 188.47C214.11 188.47 215.12 188.32 215.9 188.02C216.68 187.72 217.33 187.39 217.85 187.03C218.37 186.67 218.81 186.34 219.17 186.04C219.55 185.74 219.95 185.59 220.37 185.59C220.89 185.59 221.29 185.79 221.57 186.19L223.4 188.56C222.66 189.46 221.84 190.22 220.94 190.84C220.04 191.46 219.09 191.97 218.09 192.37C217.09 192.75 216.05 193.02 214.97 193.18C213.89 193.36 212.8 193.45 211.7 193.45C209.8 193.45 208.02 193.1 206.36 192.4C204.72 191.68 203.28 190.65 202.04 189.31C200.82 187.95 199.85 186.3 199.13 184.36C198.43 182.4 198.08 180.17 198.08 177.67C198.08 175.41 198.4 173.32 199.04 171.4C199.68 169.46 200.61 167.79 201.83 166.39C203.07 164.99 204.6 163.9 206.42 163.12C208.24 162.32 210.34 161.92 212.72 161.92C214.94 161.92 216.89 162.28 218.57 163C220.27 163.72 221.78 164.74 223.1 166.06L221.39 168.4ZM250.308 162.4V193H243.858V162.4H250.308ZM251.388 153.16C251.388 153.74 251.268 154.29 251.028 154.81C250.808 155.33 250.498 155.79 250.098 156.19C249.698 156.57 249.228 156.88 248.688 157.12C248.168 157.34 247.608 157.45 247.008 157.45C246.428 157.45 245.878 157.34 245.358 157.12C244.858 156.88 244.418 156.57 244.038 156.19C243.658 155.79 243.348 155.33 243.108 154.81C242.888 154.29 242.778 153.74 242.778 153.16C242.778 152.56 242.888 152 243.108 151.48C243.348 150.96 243.658 150.51 244.038 150.13C244.418 149.73 244.858 149.42 245.358 149.2C245.878 148.96 246.428 148.84 247.008 148.84C247.608 148.84 248.168 148.96 248.688 149.2C249.228 149.42 249.698 149.73 250.098 150.13C250.498 150.51 250.808 150.96 251.028 151.48C251.268 152 251.388 152.56 251.388 153.16ZM279.442 166.45C280.102 165.77 280.782 165.16 281.482 164.62C282.202 164.06 282.962 163.58 283.762 163.18C284.562 162.78 285.412 162.47 286.312 162.25C287.212 162.03 288.192 161.92 289.252 161.92C290.932 161.92 292.402 162.2 293.662 162.76C294.942 163.32 296.012 164.11 296.872 165.13C297.752 166.15 298.412 167.38 298.852 168.82C299.292 170.24 299.512 171.81 299.512 173.53V193H293.092V173.53C293.092 171.47 292.612 169.87 291.652 168.73C290.712 167.59 289.272 167.02 287.332 167.02C285.892 167.02 284.552 167.35 283.312 168.01C282.092 168.67 280.942 169.57 279.862 170.71V193H273.412V162.4H277.312C278.192 162.4 278.752 162.81 278.992 163.63L279.442 166.45ZM342.115 174.25C342.115 173.17 341.955 172.17 341.635 171.25C341.335 170.31 340.885 169.5 340.285 168.82C339.685 168.12 338.935 167.58 338.035 167.2C337.155 166.8 336.135 166.6 334.975 166.6C332.635 166.6 330.795 167.27 329.455 168.61C328.115 169.95 327.265 171.83 326.905 174.25H342.115ZM326.725 178.21C326.805 179.95 327.075 181.46 327.535 182.74C327.995 184 328.605 185.05 329.365 185.89C330.145 186.73 331.065 187.36 332.125 187.78C333.205 188.18 334.405 188.38 335.725 188.38C336.985 188.38 338.075 188.24 338.995 187.96C339.915 187.66 340.715 187.34 341.395 187C342.075 186.64 342.655 186.32 343.135 186.04C343.615 185.74 344.055 185.59 344.455 185.59C344.975 185.59 345.375 185.79 345.655 186.19L347.485 188.56C346.725 189.46 345.865 190.22 344.905 190.84C343.945 191.46 342.925 191.97 341.845 192.37C340.765 192.75 339.655 193.02 338.515 193.18C337.375 193.36 336.265 193.45 335.185 193.45C333.065 193.45 331.095 193.1 329.275 192.4C327.475 191.68 325.905 190.63 324.565 189.25C323.245 187.87 322.205 186.16 321.445 184.12C320.705 182.08 320.335 179.73 320.335 177.07C320.335 174.95 320.665 172.97 321.325 171.13C322.005 169.29 322.965 167.69 324.205 166.33C325.465 164.97 326.985 163.9 328.765 163.12C330.565 162.32 332.595 161.92 334.855 161.92C336.735 161.92 338.475 162.23 340.075 162.85C341.675 163.45 343.055 164.34 344.215 165.52C345.375 166.7 346.275 168.15 346.915 169.87C347.575 171.57 347.905 173.51 347.905 175.69C347.905 176.69 347.795 177.36 347.575 177.7C347.355 178.04 346.955 178.21 346.375 178.21H326.725Z" fill="white"/>
<path d="M130.885 69.54C138.92 78.5384 154.267 90.7678 161.279 96.2007C168.108 90.7678 183.08 78.5384 191.115 69.54C198.501 61.2681 203.861 54.8298 202.885 43.6016C202.065 34.163 198.669 27.3457 191.115 23.0819C185.154 19.7174 179.523 19.035 173.108 21.3941C169.452 22.7384 164.551 27.0378 161.336 30.1307C157.83 27.0378 152.548 22.7384 148.892 21.3941C142.477 19.035 136.846 19.7174 130.885 23.0819C123.331 27.3457 119.935 34.163 119.115 43.6016C118.139 54.8298 123.499 61.2681 130.885 69.54Z" fill="#FB7171"/>
<path d="M164.937 99C164.937 99 141.513 81.4432 130.885 69.54C123.499 61.2681 118.139 54.8298 119.115 43.6016C119.935 34.163 123.331 27.3457 130.885 23.0819C136.846 19.7174 142.477 19.035 148.892 21.3941C154.813 23.5714 165 33.5 165 33.5M157.719 99C157.719 99 180.487 81.4432 191.115 69.54C198.501 61.2681 203.861 54.8298 202.885 43.6016C202.065 34.163 198.669 27.3457 191.115 23.0819C185.154 19.7174 179.523 19.035 173.108 21.3941C167.187 23.5714 158 33.5 158 33.5" stroke="white" stroke-width="10"/>
<circle cx="160.5" cy="54.5" r="49.5" stroke="white" stroke-width="10"/>
</svg>
