<svg width="109" height="109" viewBox="0 0 109 109" fill="none" xmlns="http://www.w3.org/2000/svg">
<path d="M24.8851 69.54C32.9198 78.5384 48.2671 90.7678 55.279 96.2007C62.108 90.7678 77.0802 78.5384 85.1149 69.54C92.5009 61.2681 97.8613 54.8298 96.8852 43.6016C96.0647 34.163 92.669 27.3457 85.1149 23.0819C79.1542 19.7174 73.5234 19.035 67.1081 21.3941C63.4524 22.7384 58.5513 27.0378 55.3365 30.1307C51.8299 27.0378 46.5476 22.7384 42.8919 21.3941C36.4766 19.035 30.8458 19.7174 24.8851 23.0819C17.331 27.3457 13.9353 34.163 13.1148 43.6016C12.1387 54.8298 17.4991 61.2681 24.8851 69.54Z" fill="#FB7171"/>
<path d="M58.9375 99C58.9375 99 35.5135 81.4432 24.8851 69.54C17.4991 61.2681 12.1387 54.8298 13.1148 43.6016C13.9353 34.163 17.331 27.3457 24.8851 23.0819C30.8458 19.7174 36.4766 19.035 42.8919 21.3941C48.8127 23.5714 59 33.5 59 33.5M51.7187 99C51.7187 99 74.4865 81.4432 85.1149 69.54C92.5009 61.2681 97.8613 54.8298 96.8852 43.6016C96.0647 34.163 92.669 27.3457 85.1149 23.0819C79.1542 19.7174 73.5234 19.035 67.1081 21.3941C61.1873 23.5714 52 33.5 52 33.5" stroke="white" stroke-width="10"/>
<circle cx="54.5" cy="54.5" r="49.5" stroke="white" stroke-width="10"/>
</svg>
