<svg width="41" height="41" viewBox="0 0 41 41" fill="none" xmlns="http://www.w3.org/2000/svg">
<circle cx="20.5" cy="20.5" r="20.5" fill="#D9D9D9"/>
<g clip-path="url(#clip0_261_701)">
<path d="M20.5012 20.8162C22.8441 20.8162 24.7592 18.901 24.7592 16.5581C24.7592 14.2152 22.8441 12.3 20.5012 12.3C18.1583 12.3 16.2432 14.2152 16.2432 16.5581C16.2432 18.901 18.1583 20.8162 20.5012 20.8162Z" fill="white"/>
<path d="M27.8086 24.219C27.6971 23.94 27.5483 23.6797 27.381 23.438C26.5257 22.1736 25.2055 21.3369 23.718 21.1323C23.532 21.1137 23.3275 21.1509 23.1787 21.2625C22.3978 21.8389 21.4681 22.1364 20.5012 22.1364C19.5343 22.1364 18.6046 21.8389 17.8236 21.2625C17.6748 21.1509 17.4703 21.0951 17.2844 21.1323C15.7969 21.3369 14.4581 22.1736 13.6214 23.438C13.454 23.6797 13.3053 23.9587 13.1937 24.219C13.1379 24.3305 13.1565 24.4607 13.2123 24.5723C13.3611 24.8326 13.547 25.0929 13.7143 25.316C13.9746 25.6693 14.2536 25.9854 14.5697 26.2829C14.83 26.5432 15.1275 26.785 15.425 27.0267C16.8939 28.1238 18.6604 28.7001 20.4826 28.7001C22.3048 28.7001 24.0713 28.1237 25.5402 27.0267C25.8377 26.8036 26.1352 26.5432 26.3955 26.2829C26.693 25.9854 26.9905 25.6693 27.2509 25.316C27.4368 25.0743 27.6042 24.8326 27.7529 24.5723C27.8458 24.4607 27.8644 24.3305 27.8086 24.219Z" fill="white"/>
</g>
<defs>
<clipPath id="clip0_261_701">
<rect width="16.4" height="16.4" fill="white" transform="translate(12.3 12.3)"/>
</clipPath>
</defs>
</svg>
