<svg width="17" height="18" viewBox="0 0 17 18" fill="none" xmlns="http://www.w3.org/2000/svg">
<path fill-rule="evenodd" clip-rule="evenodd" d="M12.4561 0.0389985C11.9329 0.137854 11.4099 0.367694 11.0083 0.675169C10.8302 0.811574 5.87402 5.73708 2.40553 9.22467C0.904052 10.7345 0.755914 10.9083 0.447501 11.5223C0.275794 11.8642 0.124613 12.3217 0.0553924 12.7088C-0.0184641 13.122 -0.0184641 13.879 0.0553924 14.2922C0.366672 16.0335 1.73565 17.4775 3.45283 17.8757C4.72187 18.17 5.96451 17.9398 7.07891 17.2038C7.4191 16.9791 7.74531 16.6592 13.4579 10.9491C17.1698 7.23884 17.0051 7.42012 16.9969 7.05419C16.9898 6.73605 16.7478 6.43709 16.4338 6.35847C16.241 6.31022 16.0611 6.33831 15.8743 6.44589C15.7964 6.49073 15.2868 6.97582 14.7419 7.5239C14.1969 8.07202 12.1027 10.166 10.0882 12.1773C7.27146 14.9895 6.36656 15.8726 6.17033 16.0008C5.61094 16.3661 5.0644 16.5126 4.37527 16.4818C3.86036 16.4589 3.53723 16.3747 3.12052 16.1548C1.74153 15.4272 1.14473 13.8497 1.70345 12.409C1.935 11.8119 1.81418 11.9409 6.96796 6.78623C9.60747 4.14629 11.8233 1.9423 11.892 1.88853C12.4643 1.44046 13.3286 1.37444 13.9679 1.72999C14.3582 1.94702 14.6803 2.326 14.8344 2.74929C14.8964 2.91991 14.9112 3.03812 14.9112 3.36516C14.9112 3.82681 14.8495 4.05151 14.631 4.38574C14.5535 4.50423 12.9582 6.11733 10.518 8.5444C6.60898 12.4326 6.52787 12.5106 6.33712 12.5658C6.03918 12.652 5.81128 12.5939 5.59215 12.3761C5.37278 12.1579 5.31453 11.9312 5.40179 11.6352C5.457 11.448 5.523 11.3778 7.43577 9.47102C8.79831 8.11274 9.42972 7.4596 9.46737 7.36941C9.57389 7.11437 9.51589 6.76684 9.33452 6.5735C9.11829 6.34295 8.72219 6.27422 8.44265 6.41869C8.3568 6.46306 7.50545 7.28593 6.27958 8.50932C4.27123 10.5136 4.25711 10.5287 4.11219 10.8259C3.90053 11.26 3.84769 11.5046 3.8691 11.9516C3.89858 12.5676 4.09864 13.0283 4.51746 13.4448C4.92684 13.8519 5.39734 14.0577 5.99144 14.0896C6.44056 14.1138 6.69929 14.0619 7.11557 13.8643L7.45176 13.7047L11.4974 9.68748C13.8427 7.35867 15.6305 5.55574 15.7511 5.39779C16.2054 4.80266 16.4273 4.15199 16.4324 3.40035C16.4388 2.4395 16.1223 1.66059 15.4527 0.988978C15.0219 0.556958 14.4528 0.233893 13.871 0.091083C13.4791 -0.0051326 12.8183 -0.0294505 12.4561 0.0389985Z" fill="#A3A5A7"/>
</svg>
